<svg xmlns="http://www.w3.org/2000/svg" width="481" height="105" viewBox="0 0 481 105" role="img" aria-label="MEDHA">
<rect x="0" y="0" width="26" height="21" fill="rgb(198,142,50)"/>
<rect x="65" y="0" width="26" height="21" fill="rgb(198,142,50)"/>
<rect x="104" y="0" width="78" height="21" fill="rgb(198,142,50)"/>
<rect x="195" y="0" width="65" height="21" fill="rgb(198,142,50)"/>
<rect x="286" y="0" width="26" height="21" fill="rgb(198,142,50)"/>
<rect x="351" y="0" width="26" height="21" fill="rgb(198,142,50)"/>
<rect x="403" y="0" width="65" height="21" fill="rgb(198,142,50)"/>
<rect x="0" y="21" width="39" height="21" fill="rgb(178,120,34)"/>
<rect x="52" y="21" width="39" height="21" fill="rgb(178,120,34)"/>
<rect x="104" y="21" width="26" height="21" fill="rgb(178,120,34)"/>
<rect x="195" y="21" width="26" height="21" fill="rgb(178,120,34)"/>
<rect x="247" y="21" width="26" height="21" fill="rgb(178,120,34)"/>
<rect x="286" y="21" width="26" height="21" fill="rgb(178,120,34)"/>
<rect x="351" y="21" width="26" height="21" fill="rgb(178,120,34)"/>
<rect x="390" y="21" width="26" height="21" fill="rgb(178,120,34)"/>
<rect x="455" y="21" width="26" height="21" fill="rgb(178,120,34)"/>
<rect x="0" y="42" width="26" height="21" fill="rgb(158,102,24)"/>
<rect x="39" y="42" width="13" height="21" fill="rgb(158,102,24)"/>
<rect x="65" y="42" width="26" height="21" fill="rgb(158,102,24)"/>
<rect x="104" y="42" width="65" height="21" fill="rgb(158,102,24)"/>
<rect x="195" y="42" width="26" height="21" fill="rgb(158,102,24)"/>
<rect x="247" y="42" width="26" height="21" fill="rgb(158,102,24)"/>
<rect x="286" y="42" width="91" height="21" fill="rgb(158,102,24)"/>
<rect x="390" y="42" width="91" height="21" fill="rgb(158,102,24)"/>
<rect x="0" y="63" width="26" height="21" fill="rgb(138,86,18)"/>
<rect x="65" y="63" width="26" height="21" fill="rgb(138,86,18)"/>
<rect x="104" y="63" width="26" height="21" fill="rgb(138,86,18)"/>
<rect x="195" y="63" width="26" height="21" fill="rgb(138,86,18)"/>
<rect x="247" y="63" width="26" height="21" fill="rgb(138,86,18)"/>
<rect x="286" y="63" width="26" height="21" fill="rgb(138,86,18)"/>
<rect x="351" y="63" width="26" height="21" fill="rgb(138,86,18)"/>
<rect x="390" y="63" width="26" height="21" fill="rgb(138,86,18)"/>
<rect x="455" y="63" width="26" height="21" fill="rgb(138,86,18)"/>
<rect x="0" y="84" width="26" height="21" fill="rgb(120,72,14)"/>
<rect x="65" y="84" width="26" height="21" fill="rgb(120,72,14)"/>
<rect x="104" y="84" width="78" height="21" fill="rgb(120,72,14)"/>
<rect x="195" y="84" width="65" height="21" fill="rgb(120,72,14)"/>
<rect x="286" y="84" width="26" height="21" fill="rgb(120,72,14)"/>
<rect x="351" y="84" width="26" height="21" fill="rgb(120,72,14)"/>
<rect x="390" y="84" width="26" height="21" fill="rgb(120,72,14)"/>
<rect x="455" y="84" width="26" height="21" fill="rgb(120,72,14)"/>
</svg>